{
  "accessors": [
    {
      "bufferView": 3,
      "componentType": 5126,
      "count": 11836,
      "max": [
        2.1543266773223877,
        4.550321102142334,
        0.5651096701622009
      ],
      "min": [
        -2.1543266773223877,
        0.00022335504763759673,
        -2.6669065952301025
      ],
      "type": "VEC3"
    },
    {
      "bufferView": 3,
      "byteOffset": 142032,
      "componentType": 5126,
      "count": 11836,
      "max": [
        0.9999472498893738,
        0.9999678730964661,
        0.9999858736991882
      ],
      "min": [
        -0.9999472498893738,
        -0.9999960660934448,
        -0.999973475933075
      ],
      "type": "VEC3"
    },
    {
      "bufferView": 2,
      "componentType": 5126,
      "count": 11836,
      "max": [
        0.9956038594245911,
        0.9923548102378845
      ],
      "min": [
        0.004396259784698486,
        0.0033678635954856873
      ],
      "type": "VEC2"
    },
    {
      "bufferView": 1,
      "componentType": 5125,
      "count": 55098,
      "type": "SCALAR"
    },
    {
      "bufferView": 5,
      "componentType": 5126,
      "count": 72,
      "max": [
        100.0,
        0.9999610185623169,
        0.5886980891227722,
        0.0,
        0.5939980149269104,
        100.0,
        1.0000001192092896,
        0.0,
        0.9999613165855408,
        0.9829403162002563,
        100.0,
        0.0,
        1.3105342388153076,
        3.150592803955078,
        3.2854719161987305,
        1.0
      ],
      "min": [
        -0.4292261004447937,
        -0.9999610185623169,
        -0.588698148727417,
        0.0,
        -0.5939980149269104,
        -1.000000238418579,
        -0.9829403758049011,
        0.0,
        -0.9999613165855408,
        -0.9842370748519897,
        -1.0,
        0.0,
        -1.3105342388153076,
        -3.7907891273498535,
        -3.7295620441436768,
        1.0
      ],
      "type": "MAT4"
    },
    {
      "bufferView": 0,
      "componentType": 5123,
      "count": 11836,
      "type": "VEC4"
    },
    {
      "bufferView": 4,
      "componentType": 5126,
      "count": 11836,
      "max": [
        1.0,
        0.49999889731407166,
        0.33242398500442505,
        0.24603402614593506
      ],
      "min": [
        0.2534294128417969,
        0.0,
        0.0,
        0.0
      ],
      "type": "VEC4"
    }
  ],
  "asset": {
    "extras": {
      "author": "Jakermates (https://sketchfab.com/jaydidleedoo)",
      "license": "CC-BY-4.0 (http://creativecommons.org/licenses/by/4.0/)",
      "source": "https://sketchfab.com/3d-models/female-protogen-839042536637493b9b7bd983d2a36e5c",
      "title": "Female_Protogen"
    },
    "generator": "Sketchfab-17.14.0",
    "version": "2.0"
  },
  "bufferViews": [
    {
      "buffer": 0,
      "byteLength": 94688,
      "byteStride": 8,
      "name": "shortBufferViews",
      "target": 34962
    },
    {
      "buffer": 0,
      "byteLength": 220392,
      "byteOffset": 94688,
      "name": "floatBufferViews",
      "target": 34963
    },
    {
      "buffer": 0,
      "byteLength": 94688,
      "byteOffset": 315080,
      "byteStride": 8,
      "name": "floatBufferViews",
      "target": 34962
    },
    {
      "buffer": 0,
      "byteLength": 284064,
      "byteOffset": 409768,
      "byteStride": 12,
      "name": "floatBufferViews",
      "target": 34962
    },
    {
      "buffer": 0,
      "byteLength": 189376,
      "byteOffset": 693832,
      "byteStride": 16,
      "name": "floatBufferViews",
      "target": 34962
    },
    {
      "buffer": 0,
      "byteLength": 4608,
      "byteOffset": 883208,
      "name": "floatBufferViews"
    }
  ],
  "buffers": [
    {
      "byteLength": 887816,
      "uri": "scene.bin"
    }
  ],
  "extensionsUsed": [
    "KHR_materials_specular"
  ],
  "images": [
    {
      "uri": "textures/Body_baseColor.png"
    }
  ],
  "materials": [
    {
      "doubleSided": true,
      "extensions": {
        "KHR_materials_specular": {
          "specularColorFactor": [
            1.0,
            1.0,
            1.0
          ],
          "specularFactor": 0.0
        }
      },
      "name": "Body",
      "pbrMetallicRoughness": {
        "baseColorTexture": {
          "index": 0
        },
        "metallicFactor": 0.0
      }
    }
  ],
  "meshes": [
    {
      "name": "Body_Body_0",
      "primitives": [
        {
          "attributes": {
            "JOINTS_0": 5,
            "NORMAL": 1,
            "POSITION": 0,
            "TEXCOORD_0": 2,
            "WEIGHTS_0": 6
          },
          "indices": 3,
          "material": 0,
          "mode": 4
        }
      ]
    }
  ],
  "nodes": [
    {
      "children": [
        1
      ],
      "matrix": [
        1.0,
        0.0,
        0.0,
        0.0,
        0.0,
        2.220446049250313e-16,
        -1.0,
        0.0,
        0.0,
        1.0,
        2.220446049250313e-16,
        0.0,
        0.0,
        0.0,
        0.0,
        1.0
      ],
      "name": "Sketchfab_model"
    },
    {
      "children": [
        2
      ],
      "matrix": [
        0.009999999776482582,
        0.0,
        0.0,
        0.0,
        0.0,
        0.0,
        0.009999999776482582,
        0.0,
        0.0,
        -0.009999999776482582,
        0.0,
        0.0,
        0.0,
        0.0,
        0.0,
        1.0
      ],
      "name": "Female_Protogen.fbx"
    },
    {
      "children": [
        3
      ],
      "name": "RootNode"
    },
    {
      "children": [
        4
      ],
      "matrix": [
        100.0,
        0.0,
        0.0,
        0.0,
        0.0,
        -1.629206793918314e-05,
        -99.99999999999868,
        0.0,
        0.0,
        99.99999999999868,
        -1.629206793918314e-05,
        0.0,
        0.0,
        0.0,
        0.0,
        1.0
      ],
      "name": "Armature"
    },
    {
      "children": [
        5,
        78,
        77
      ],
      "name": "Object_4"
    },
    {
      "children": [
        6
      ],
      "name": "_rootJoint"
    },
    {
      "children": [
        7,
        65,
        71,
        74
      ],
      "name": "Hips_01",
      "rotation": [
        0.7071068286895752,
        0.0,
        0.0,
        0.7071067094802856
      ],
      "translation": [
        0.0,
        -0.048063334077596664,
        2.2568368911743164
      ]
    },
    {
      "children": [
        8
      ],
      "name": "Spine_02",
      "rotation": [
        0.0035568757448345423,
        -1.4478526073319868e-16,
        -1.4478523426341908e-16,
        0.9999936819076538
      ],
      "scale": [
        1.0,
        0.9999999403953552,
        0.9999999403953552
      ],
      "translation": [
        0.0,
        0.11617255210876465,
        0.0
      ]
    },
    {
      "children": [
        9,
        23,
        42,
        44,
        63
      ],
      "name": "Chest_03",
      "rotation": [
        -0.049209561198949814,
        1.9277031246986523e-16,
        2.056030336743353e-16,
        0.9987884759902954
      ],
      "translation": [
        -9.926167350636332e-24,
        0.2728843688964844,
        1.862645149230957e-09
      ]
    },
    {
      "children": [
        10
      ],
      "name": "Neck_04",
      "rotation": [
        0.007083592936396599,
        -8.099025168575792e-16,
        -8.866699069606245e-16,
        0.9999749064445496
      ],
      "scale": [
        1.0,
        1.0,
        0.9999999403953552
      ],
      "translation": [
        -3.1846453583291565e-23,
        0.6908442378044128,
        1.4901161193847656e-08
      ]
    },
    {
      "children": [
        11,
        18,
        21,
        22
      ],
      "name": "Head_05",
      "rotation": [
        0.056809984147548676,
        8.089721570441388e-16,
        7.799683725016123e-16,
        0.9983850121498108
      ],
      "scale": [
        1.0,
        0.9999999403953552,
        0.9999999403953552
      ],
      "translation": [
        -3.8050308177439273e-22,
        0.15241490304470062,
        -2.7939677238464355e-08
      ]
    },
    {
      "children": [
        12,
        15
      ],
      "name": "Ears_06",
      "rotation": [
        -0.022166388109326363,
        -2.6318409184670733e-22,
        8.744833630027211e-23,
        0.9997543096542358
      ],
      "translation": [
        6.621702399037032e-18,
        0.3239114284515381,
        -0.04626214876770973
      ]
    },
    {
      "children": [
        13
      ],
      "name": "Ear_L_07",
      "rotation": [
        -0.3809033930301666,
        -0.18293651938438416,
        -0.1843751221895218,
        0.8873853087425232
      ],
      "translation": [
        0.2166566103696823,
        0.12863004207611084,
        -0.1268165111541748
      ]
    },
    {
      "children": [
        14
      ],
      "name": "Ear_L.001_08",
      "rotation": [
        0.022133849561214447,
        0.011877268552780151,
        0.013872386887669563,
        0.9995881915092468
      ],
      "scale": [
        1.0000001192092896,
        0.9999999403953552,
        0.9999998807907104
      ],
      "translation": [
        -5.960464477539063e-08,
        0.2884853780269623,
        -2.3096799850463867e-07
      ]
    },
    {
      "name": "Ear_L.002_09",
      "rotation": [
        0.090946726500988,
        0.018000410869717598,
        -0.015924647450447083,
        0.9955657124519348
      ],
      "scale": [
        0.9999998807907104,
        0.9999998807907104,
        0.9999998807907104
      ],
      "translation": [
        2.9802322387695313e-08,
        0.24281181395053864,
        -1.6391277313232422e-07
      ]
    },
    {
      "children": [
        16
      ],
      "name": "Ear_R_010",
      "rotation": [
        -0.3809033930301666,
        0.18293651938438416,
        0.1843751221895218,
        0.8873853087425232
      ],
      "translation": [
        -0.2166566103696823,
        0.12863004207611084,
        -0.1268165111541748
      ]
    },
    {
      "children": [
        17
      ],
      "name": "Ear_R.001_011",
      "rotation": [
        0.022133849561214447,
        -0.011877268552780151,
        -0.013872386887669563,
        0.9995881915092468
      ],
      "scale": [
        1.0000001192092896,
        0.9999999403953552,
        0.9999998807907104
      ],
      "translation": [
        5.960464477539063e-08,
        0.2884853780269623,
        -2.3096799850463867e-07
      ]
    },
    {
      "name": "Ear_R.002_012",
      "rotation": [
        0.090946726500988,
        -0.018000410869717598,
        0.015924647450447083,
        0.9955657124519348
      ],
      "scale": [
        0.9999998807907104,
        0.9999998807907104,
        0.9999998807907104
      ],
      "translation": [
        -2.9802322387695313e-08,
        0.24281181395053864,
        -1.6391277313232422e-07
      ]
    },
    {
      "children": [
        19,
        20
      ],
      "name": "Hair_013",
      "rotation": [
        -0.718787431716919,
        1.675397553048912e-16,
        1.615328623407597e-16,
        0.6952300071716309
      ],
      "scale": [
        1.0,
        0.9999999403953552,
        0.9999999403953552
      ],
      "translation": [
        6.757069017356232e-17,
        0.443189799785614,
        -0.10045994818210602
      ]
    },
    {
      "name": "LowerHair_014",
      "rotation": [
        -0.5237703323364258,
        1.2157691532045547e-16,
        -2.0045205426851448e-16,
        0.8518595099449158
      ],
      "translation": [
        4.742654600451565e-17,
        0.2364090532064438,
        -0.22033873200416565
      ]
    },
    {
      "name": "UpperHair_015",
      "rotation": [
        0.1520775407552719,
        -3.5720305827999905e-17,
        -2.0556486425214965e-16,
        0.988368570804596
      ],
      "translation": [
        1.8404083723757672e-17,
        0.12989278137683868,
        0.05767723172903061
      ]
    },
    {
      "name": "LeftEye_016",
      "rotation": [
        -0.018115611746907234,
        -1.6708282231860008e-22,
        3.0273012526551724e-24,
        0.9998359084129333
      ],
      "scale": [
        1.0,
        0.9999998807907104,
        0.9999998807907104
      ],
      "translation": [
        0.12292459607124329,
        0.31552231311798096,
        0.1300749033689499
      ]
    },
    {
      "name": "RightEye_017",
      "rotation": [
        -0.018115611746907234,
        -1.6708282231860008e-22,
        3.0273012526551724e-24,
        0.9998359084129333
      ],
      "scale": [
        1.0,
        0.9999998807907104,
        0.9999998807907104
      ],
      "translation": [
        -0.12292459607124329,
        0.31552231311798096,
        0.1300749033689499
      ]
    },
    {
      "children": [
        24
      ],
      "name": "Shoulder_L_018",
      "rotation": [
        -0.5235648155212402,
        -0.45841556787490845,
        -0.502326250076294,
        0.5132284164428711
      ],
      "scale": [
        0.9999999403953552,
        1.0,
        0.9999998807907104
      ],
      "translation": [
        0.06777581572532654,
        0.5439032912254333,
        -0.013459786772727966
      ]
    },
    {
      "children": [
        25
      ],
      "name": "Arm_L_019",
      "rotation": [
        0.029581595212221146,
        0.029285231605172157,
        -0.03238968178629875,
        0.9986081123352051
      ],
      "scale": [
        0.9999999403953552,
        1.0000001192092896,
        0.9999998807907104
      ],
      "translation": [
        3.725290298461914e-09,
        0.23803415894508362,
        1.7136335372924805e-07
      ]
    },
    {
      "children": [
        26
      ],
      "name": "Elbow_L_020",
      "rotation": [
        0.006778860464692116,
        0.00669341953471303,
        -0.022199643775820732,
        0.9997081756591797
      ],
      "scale": [
        1.0,
        1.0,
        0.9999999403953552
      ],
      "translation": [
        3.4924596548080444e-09,
        0.7707871198654175,
        -1.1897645890712738e-07
      ]
    },
    {
      "children": [
        27,
        30,
        33,
        36,
        39
      ],
      "name": "Wrist_L_021",
      "rotation": [
        -0.00743145402520895,
        -0.007246777880936861,
        0.030420543625950813,
        0.9994834065437317
      ],
      "scale": [
        0.9999999403953552,
        1.0,
        1.0
      ],
      "translation": [
        -9.313225746154785e-09,
        0.5784344673156738,
        -1.856533344835043e-07
      ]
    },
    {
      "children": [
        28
      ],
      "name": "Thumb_L_022",
      "rotation": [
        -0.24226561188697815,
        -0.24868793785572052,
        -0.3216668665409088,
        0.8809041380882263
      ],
      "translation": [
        0.0390385165810585,
        0.004677869845181704,
        -0.015259979292750359
      ]
    },
    {
      "children": [
        29
      ],
      "name": "Thumb_L.001_023",
      "rotation": [
        0.013713082298636436,
        -0.008213648572564125,
        0.0819384977221489,
        0.9965091943740845
      ],
      "scale": [
        1.0,
        0.9999999403953552,
        1.0
      ],
      "translation": [
        1.6391277313232422e-07,
        0.17125022411346436,
        -1.1920928955078125e-07
      ]
    },
    {
      "name": "Thumb_L.002_024",
      "rotation": [
        0.0429474413394928,
        -0.015865862369537354,
        0.21068140864372253,
        0.9764820337295532
      ],
      "scale": [
        0.9999998807907104,
        0.9999999403953552,
        0.9999999403953552
      ],
      "translation": [
        -1.7881393432617188e-07,
        0.08481428027153015,
        -2.60770320892334e-08
      ]
    },
    {
      "children": [
        31
      ],
      "name": "Index_L_025",
      "rotation": [
        0.0022331024520099163,
        0.012072969228029251,
        -0.18219701945781708,
        0.9831854104995728
      ],
      "translation": [
        0.11210490018129349,
        0.2277965396642685,
        0.020224817097187042
      ]
    },
    {
      "children": [
        32
      ],
      "name": "Index_L.001_026",
      "rotation": [
        -0.005202270578593016,
        -0.032292455434799194,
        0.008214440196752548,
        0.9994311928749084
      ],
      "scale": [
        1.0,
        0.9999999403953552,
        0.9999999403953552
      ],
      "translation": [
        7.450580596923828e-09,
        0.05784158408641815,
        3.413297235965729e-07
      ]
    },
    {
      "name": "Index_L.002_027",
      "rotation": [
        -0.14420363306999207,
        -0.1280967742204666,
        0.047224950045347214,
        0.9800849556922913
      ],
      "scale": [
        1.0000001192092896,
        1.0,
        1.0
      ],
      "translation": [
        -1.043081283569336e-07,
        0.08376995474100113,
        -1.0244548320770264e-07
      ]
    },
    {
      "children": [
        34
      ],
      "name": "Middle_L_028",
      "rotation": [
        -0.013367371633648872,
        -0.01674058847129345,
        -0.057116035372018814,
        0.9981377720832825
      ],
      "translation": [
        0.04698049649596214,
        0.24065503478050232,
        0.02506423182785511
      ]
    },
    {
      "children": [
        35
      ],
      "name": "Middle_L.001_029",
      "rotation": [
        -0.025887707248330116,
        -0.027466867119073868,
        0.009019412100315094,
        0.9992467164993286
      ],
      "scale": [
        0.9999999403953552,
        1.0,
        1.0
      ],
      "translation": [
        -2.2351741790771484e-08,
        0.06629203259944916,
        2.60770320892334e-08
      ]
    },
    {
      "name": "Middle_L.002_030",
      "rotation": [
        -0.05983936786651611,
        -0.040764372795820236,
        0.0083018708974123,
        0.997340738773346
      ],
      "scale": [
        1.0,
        0.9999999403953552,
        0.9999999403953552
      ],
      "translation": [
        -7.450580596923828e-09,
        0.09690020978450775,
        -1.7927959561347961e-07
      ]
    },
    {
      "children": [
        37
      ],
      "name": "Ring_L_031",
      "rotation": [
        -0.021496769040822983,
        -0.031183743849396706,
        0.026693062856793404,
        0.9989259243011475
      ],
      "scale": [
        0.9999999403953552,
        0.9999999403953552,
        0.9999999403953552
      ],
      "translation": [
        -0.030820071697235107,
        0.24659046530723572,
        0.024916645139455795
      ]
    },
    {
      "children": [
        38
      ],
      "name": "Ring_L.001_032",
      "rotation": [
        -0.0010514213936403394,
        0.009482590481638908,
        -0.007983618415892124,
        0.9999226331710815
      ],
      "scale": [
        1.0,
        0.9999999403953552,
        1.0000001192092896
      ],
      "translation": [
        -2.9802322387695313e-08,
        0.06358586996793747,
        -9.848736226558685e-08
      ]
    },
    {
      "name": "Ring_L.002_033",
      "rotation": [
        -0.0798850730061531,
        -0.05854063481092453,
        0.02089538984000683,
        0.9948641657829285
      ],
      "scale": [
        0.9999998807907104,
        1.0,
        1.0
      ],
      "translation": [
        2.2351741790771484e-08,
        0.08556368947029114,
        -6.495974957942963e-08
      ]
    },
    {
      "children": [
        40
      ],
      "name": "Little_L_034",
      "rotation": [
        0.0008967991452664137,
        0.0014299644390121102,
        0.14996226131916046,
        0.9886903762817383
      ],
      "scale": [
        0.9999998807907104,
        1.0,
        0.9999999403953552
      ],
      "translation": [
        -0.0996432900428772,
        0.23426514863967896,
        0.02474926970899105
      ]
    },
    {
      "children": [
        41
      ],
      "name": "Little_L.001_035",
      "rotation": [
        -0.03788711130619049,
        -0.027632977813482285,
        0.008412115275859833,
        0.998864471912384
      ],
      "scale": [
        1.0000001192092896,
        1.0,
        1.0
      ],
      "translation": [
        -7.636845111846924e-08,
        0.05445611849427223,
        1.4557735994458199e-07
      ]
    },
    {
      "name": "Little_L.002_036",
      "rotation": [
        -0.12505678832530975,
        -0.06956404447555542,
        -0.005144102033227682,
        0.9896944761276245
      ],
      "translation": [
        7.450580596923828e-08,
        0.07808980345726013,
        -1.2665987014770508e-07
      ]
    },
    {
      "children": [
        43
      ],
      "name": "FrontFluffRoot_037",
      "rotation": [
        0.7794603705406189,
        8.196522684211262e-15,
        9.070857197421463e-15,
        0.6264515519142151
      ],
      "translation": [
        6.29702226264527e-17,
        0.698440670967102,
        0.04289551079273224
      ]
    },
    {
      "name": "FrontFluff_038",
      "rotation": [
        0.029751431196928024,
        -3.0106812022264763e-15,
        5.550058449524083e-16,
        0.9995574355125427
      ],
      "scale": [
        1.0,
        1.0,
        0.9999998807907104
      ],
      "translation": [
        -6.384152968509074e-16,
        0.12681378424167633,
        0.01569272018969059
      ]
    },
    {
      "children": [
        45
      ],
      "name": "Shoulder_R_039",
      "rotation": [
        -0.5235648155212402,
        0.45841556787490845,
        0.502326250076294,
        0.5132284164428711
      ],
      "scale": [
        0.9999999403953552,
        1.0,
        0.9999998807907104
      ],
      "translation": [
        -0.06777581572532654,
        0.5439032912254333,
        -0.013459786772727966
      ]
    },
    {
      "children": [
        46
      ],
      "name": "Arm_R_040",
      "rotation": [
        0.029581595212221146,
        -0.029285231605172157,
        0.03238968178629875,
        0.9986081123352051
      ],
      "scale": [
        0.9999999403953552,
        1.0000001192092896,
        0.9999998807907104
      ],
      "translation": [
        -3.725290298461914e-09,
        0.23803415894508362,
        1.7136335372924805e-07
      ]
    },
    {
      "children": [
        47
      ],
      "name": "Elbow_R_041",
      "rotation": [
        0.006778860464692116,
        -0.00669341953471303,
        0.022199643775820732,
        0.9997081756591797
      ],
      "scale": [
        1.0,
        1.0,
        0.9999999403953552
      ],
      "translation": [
        -3.4924596548080444e-09,
        0.7707871198654175,
        -1.1897645890712738e-07
      ]
    },
    {
      "children": [
        48,
        51,
        54,
        57,
        60
      ],
      "name": "Wrist_R_042",
      "rotation": [
        -0.00743145402520895,
        0.007246777880936861,
        -0.030420543625950813,
        0.9994834065437317
      ],
      "scale": [
        0.9999999403953552,
        1.0,
        1.0
      ],
      "translation": [
        9.313225746154785e-09,
        0.5784344673156738,
        -1.856533344835043e-07
      ]
    },
    {
      "children": [
        49
      ],
      "name": "Thumb_R_043",
      "rotation": [
        -0.24226561188697815,
        0.24868793785572052,
        0.3216668665409088,
        0.8809041380882263
      ],
      "translation": [
        -0.0390385165810585,
        0.004677869845181704,
        -0.015259979292750359
      ]
    },
    {
      "children": [
        50
      ],
      "name": "Thumb_R.001_044",
      "rotation": [
        0.013713082298636436,
        0.008213648572564125,
        -0.0819384977221489,
        0.9965091943740845
      ],
      "scale": [
        1.0,
        0.9999999403953552,
        1.0
      ],
      "translation": [
        -1.6391277313232422e-07,
        0.17125022411346436,
        -1.1920928955078125e-07
      ]
    },
    {
      "name": "Thumb_R.002_045",
      "rotation": [
        0.0429474413394928,
        0.015865862369537354,
        -0.21068140864372253,
        0.9764820337295532
      ],
      "scale": [
        0.9999998807907104,
        0.9999999403953552,
        0.9999999403953552
      ],
      "translation": [
        1.7881393432617188e-07,
        0.08481428027153015,
        -2.60770320892334e-08
      ]
    },
    {
      "children": [
        52
      ],
      "name": "Index_R_046",
      "rotation": [
        0.0022331024520099163,
        -0.012072969228029251,
        0.18219701945781708,
        0.9831854104995728
      ],
      "translation": [
        -0.11210490018129349,
        0.2277965396642685,
        0.020224817097187042
      ]
    },
    {
      "children": [
        53
      ],
      "name": "Index_R.001_047",
      "rotation": [
        -0.005202270578593016,
        0.032292455434799194,
        -0.008214440196752548,
        0.9994311928749084
      ],
      "scale": [
        1.0,
        0.9999999403953552,
        0.9999999403953552
      ],
      "translation": [
        -7.450580596923828e-09,
        0.05784158408641815,
        3.413297235965729e-07
      ]
    },
    {
      "name": "Index_R.002_048",
      "rotation": [
        -0.14420363306999207,
        0.1280967742204666,
        -0.047224950045347214,
        0.9800849556922913
      ],
      "scale": [
        1.0000001192092896,
        1.0,
        1.0
      ],
      "translation": [
        1.043081283569336e-07,
        0.08376995474100113,
        -1.0244548320770264e-07
      ]
    },
    {
      "children": [
        55
      ],
      "name": "Middle_R_049",
      "rotation": [
        -0.013367371633648872,
        0.01674058847129345,
        0.057116035372018814,
        0.9981377720832825
      ],
      "translation": [
        -0.04698049649596214,
        0.24065503478050232,
        0.02506423182785511
      ]
    },
    {
      "children": [
        56
      ],
      "name": "Middle_R.001_050",
      "rotation": [
        -0.025887707248330116,
        0.027466867119073868,
        -0.009019412100315094,
        0.9992467164993286
      ],
      "scale": [
        0.9999999403953552,
        1.0,
        1.0
      ],
      "translation": [
        2.2351741790771484e-08,
        0.06629203259944916,
        2.60770320892334e-08
      ]
    },
    {
      "name": "Middle_R.002_051",
      "rotation": [
        -0.05983936786651611,
        0.040764372795820236,
        -0.0083018708974123,
        0.997340738773346
      ],
      "scale": [
        1.0,
        0.9999999403953552,
        0.9999999403953552
      ],
      "translation": [
        7.450580596923828e-09,
        0.09690020978450775,
        -1.7927959561347961e-07
      ]
    },
    {
      "children": [
        58
      ],
      "name": "Ring_R_052",
      "rotation": [
        -0.021496769040822983,
        0.031183743849396706,
        -0.026693062856793404,
        0.9989259243011475
      ],
      "scale": [
        0.9999999403953552,
        0.9999999403953552,
        0.9999999403953552
      ],
      "translation": [
        0.030820071697235107,
        0.24659046530723572,
        0.024916645139455795
      ]
    },
    {
      "children": [
        59
      ],
      "name": "Ring_R.001_00",
      "rotation": [
        -0.0010514213936403394,
        -0.009482590481638908,
        0.007983618415892124,
        0.9999226331710815
      ],
      "scale": [
        1.0,
        0.9999999403953552,
        1.0000001192092896
      ],
      "translation": [
        2.9802322387695313e-08,
        0.06358586996793747,
        -9.848736226558685e-08
      ]
    },
    {
      "name": "Ring_R.002_053",
      "rotation": [
        -0.0798850730061531,
        0.05854063481092453,
        -0.02089538984000683,
        0.9948641657829285
      ],
      "scale": [
        0.9999998807907104,
        1.0,
        1.0
      ],
      "translation": [
        -2.2351741790771484e-08,
        0.08556368947029114,
        -6.495974957942963e-08
      ]
    },
    {
      "children": [
        61
      ],
      "name": "Little_R_054",
      "rotation": [
        0.0008967991452664137,
        -0.0014299644390121102,
        -0.14996226131916046,
        0.9886903762817383
      ],
      "scale": [
        0.9999998807907104,
        1.0,
        0.9999999403953552
      ],
      "translation": [
        0.0996432900428772,
        0.23426514863967896,
        0.02474926970899105
      ]
    },
    {
      "children": [
        62
      ],
      "name": "Little_R.001_055",
      "rotation": [
        -0.03788711130619049,
        0.027632977813482285,
        -0.008412115275859833,
        0.998864471912384
      ],
      "scale": [
        1.0000001192092896,
        1.0,
        1.0
      ],
      "translation": [
        7.636845111846924e-08,
        0.05445611849427223,
        1.4557735994458199e-07
      ]
    },
    {
      "name": "Little_R.002_056",
      "rotation": [
        -0.12505678832530975,
        0.06956404447555542,
        0.005144102033227682,
        0.9896944761276245
      ],
      "translation": [
        -7.450580596923828e-08,
        0.07808980345726013,
        -1.2665987014770508e-07
      ]
    },
    {
      "children": [
        64
      ],
      "name": "BackFluffRoot_057",
      "rotation": [
        -0.7516233325004578,
        -3.6518372329969026e-16,
        -4.861865355703645e-16,
        0.6595925688743591
      ],
      "translation": [
        9.66376183753287e-17,
        0.7698246240615845,
        -0.029683172702789307
      ]
    },
    {
      "name": "BackFluff_058",
      "rotation": [
        -0.2391466647386551,
        -7.343590364237572e-17,
        -5.39008886589682e-16,
        0.9709834456443787
      ],
      "scale": [
        1.0,
        1.0000001192092896,
        1.0
      ],
      "translation": [
        -1.9179615840607379e-16,
        0.12366047501564026,
        -0.004695754498243332
      ]
    },
    {
      "children": [
        66
      ],
      "name": "TailRoot_059",
      "rotation": [
        -0.6976690888404846,
        -1.2391800023574183e-17,
        -1.2391804986657858e-17,
        0.7164201736450195
      ],
      "translation": [
        1.8333285335129258e-17,
        -0.07808971405029297,
        -0.209433913230896
      ]
    },
    {
      "children": [
        67
      ],
      "name": "Tail_060",
      "rotation": [
        -0.3286873400211334,
        -5.625450618771534e-18,
        1.0194551063462837e-17,
        0.9444388151168823
      ],
      "scale": [
        1.0,
        0.9999999403953552,
        1.0
      ],
      "translation": [
        -5.5061856501021074e-18,
        0.25683972239494324,
        -0.025577064603567123
      ]
    },
    {
      "children": [
        68
      ],
      "name": "Tail.001_061",
      "rotation": [
        -0.11740343272686005,
        -3.5006174335403274e-17,
        1.0266377472156532e-16,
        0.9930843114852905
      ],
      "translation": [
        8.271806125530277e-25,
        0.4993934631347656,
        2.9802322387695313e-08
      ]
    },
    {
      "children": [
        69
      ],
      "name": "Tail.002_062",
      "rotation": [
        0.03748304396867752,
        -3.8519340264272154e-19,
        -8.176069895794614e-18,
        0.9992972612380981
      ],
      "scale": [
        1.0,
        0.9999999403953552,
        1.0
      ],
      "translation": [
        -4.930380657631324e-32,
        0.5124702453613281,
        -5.960464477539063e-08
      ]
    },
    {
      "children": [
        70
      ],
      "name": "Tail.003_063",
      "rotation": [
        0.21808062493801117,
        1.7152162410270916e-17,
        -9.320522249737256e-17,
        0.9759307503700256
      ],
      "scale": [
        1.0,
        0.9999999403953552,
        1.0
      ],
      "translation": [
        -3.970466940254533e-23,
        0.513552188873291,
        -1.1920928955078125e-07
      ]
    },
    {
      "name": "Tail.004_064",
      "rotation": [
        0.267583966255188,
        -2.56285308381906e-24,
        2.582207115596888e-23,
        0.9635345339775085
      ],
      "translation": [
        -1.4220574657365718e-24,
        0.5283302068710327,
        2.220446049250313e-16
      ]
    },
    {
      "children": [
        72
      ],
      "name": "Leg_L_065",
      "rotation": [
        1.0,
        -3.300117866017428e-15,
        -7.549789415861596e-08,
        -4.371138828673793e-08
      ],
      "scale": [
        1.0,
        0.9999997615814209,
        1.0
      ],
      "translation": [
        0.34865638613700867,
        -0.1643218994140625,
        0.0
      ]
    },
    {
      "children": [
        73
      ],
      "name": "Knee_L_066",
      "rotation": [
        0.042510032653808594,
        -0.005939748603850603,
        0.005939795169979334,
        0.9990607500076294
      ],
      "scale": [
        0.9999998807907104,
        1.0,
        1.0
      ],
      "translation": [
        -7.257360934431745e-09,
        0.9867112636566162,
        -4.915818863082677e-10
      ]
    },
    {
      "name": "Foot_L_067",
      "rotation": [
        -0.5950520634651184,
        0.21995261311531067,
        -0.2321123331785202,
        0.7373315095901489
      ],
      "scale": [
        1.0000001192092896,
        1.0,
        1.0
      ],
      "translation": [
        -4.674075171351433e-08,
        0.9443166851997375,
        -2.3283061589829401e-10
      ]
    },
    {
      "children": [
        75
      ],
      "name": "Leg_R_068",
      "rotation": [
        1.0,
        -3.300117866017428e-15,
        -7.549789415861596e-08,
        -4.371138828673793e-08
      ],
      "scale": [
        1.0,
        0.9999997615814209,
        1.0
      ],
      "translation": [
        -0.34865638613700867,
        -0.1643218994140625,
        0.0
      ]
    },
    {
      "children": [
        76
      ],
      "name": "Knee_R_069",
      "rotation": [
        0.04251003637909889,
        0.005939837545156479,
        -0.00593980448320508,
        0.9990607500076294
      ],
      "scale": [
        0.9999998807907104,
        1.0,
        1.0
      ],
      "translation": [
        -7.257360934431745e-09,
        0.9867112636566162,
        4.915818863082677e-10
      ]
    },
    {
      "name": "Foot_R_070",
      "rotation": [
        -0.5950520038604736,
        -0.2199525684118271,
        0.2321123331785202,
        0.7373315691947937
      ],
      "scale": [
        1.0,
        1.0,
        0.9999999403953552
      ],
      "translation": [
        2.270098775625229e-08,
        0.9443166851997375,
        4.656612873077393e-10
      ]
    },
    {
      "matrix": [
        100.0,
        0.0,
        0.0,
        0.0,
        0.0,
        6.123233995736766e-15,
        -100.0,
        0.0,
        0.0,
        100.0,
        6.123233995736766e-15,
        0.0,
        0.0,
        -3.814697265625e-06,
        1.341104507446289e-07,
        1.0
      ],
      "name": "Object_77"
    },
    {
      "mesh": 0,
      "name": "Object_78",
      "skin": 0
    }
  ],
  "samplers": [
    {
      "magFilter": 9729,
      "minFilter": 9987,
      "wrapS": 10497,
      "wrapT": 10497
    }
  ],
  "scene": 0,
  "scenes": [
    {
      "name": "Sketchfab_Scene",
      "nodes": [
        0
      ]
    }
  ],
  "skins": [
    {
      "inverseBindMatrices": 4,
      "joints": [
        5,
        6,
        7,
        8,
        9,
        10,
        11,
        12,
        13,
        14,
        15,
        16,
        17,
        18,
        19,
        20,
        21,
        22,
        23,
        24,
        25,
        26,
        27,
        28,
        29,
        30,
        31,
        32,
        33,
        34,
        35,
        36,
        37,
        38,
        39,
        40,
        41,
        42,
        43,
        44,
        45,
        46,
        47,
        48,
        49,
        50,
        51,
        52,
        53,
        54,
        55,
        56,
        57,
        58,
        59,
        60,
        61,
        62,
        63,
        64,
        65,
        66,
        67,
        68,
        69,
        70,
        71,
        72,
        73,
        74,
        75,
        76
      ],
      "skeleton": 5
    }
  ],
  "textures": [
    {
      "sampler": 0,
      "source": 0
    }
  ]
}
